<?xml version="1.0" standalone="no"?>
<!DOCTYPE svg PUBLIC "-//W3C//DTD SVG 20010904//EN"
 "http://www.w3.org/TR/2001/REC-SVG-20010904/DTD/svg10.dtd">
<svg version="1.0" xmlns="http://www.w3.org/2000/svg"
 width="512.000000pt" height="512.000000pt" viewBox="0 0 512.000000 512.000000"
 preserveAspectRatio="xMidYMid meet">

<g transform="translate(0.000000,512.000000) scale(0.100000,-0.100000)"
fill="#000000" stroke="none">
<path d="M2418 4729 c-250 -31 -516 -149 -685 -306 l-53 -48 436 -418 c240
-230 441 -416 447 -414 19 6 865 821 866 833 1 17 -120 113 -222 178 -219 137
-533 207 -789 175z"/>
<path d="M1635 3998 c-158 -176 -273 -412 -310 -638 -123 -759 461 -1452 1225
-1453 268 0 490 67 711 215 455 304 657 891 488 1418 -50 156 -155 338 -261
452 l-53 58 -169 -164 -169 -163 57 -69 c69 -83 138 -222 161 -324 24 -106 23
-263 -4 -365 -70 -269 -266 -471 -541 -557 -64 -20 -96 -23 -215 -23 -132 1
-146 3 -235 33 -113 40 -173 73 -261 145 -116 97 -210 245 -251 396 -29 107
-29 287 0 392 32 119 99 241 181 332 l34 38 -39 38 c-21 21 -98 95 -170 165
l-131 127 -48 -53z"/>
<path d="M415 1394 c-47 -24 -83 -64 -100 -108 -13 -35 -15 -94 -13 -392 l3
-350 27 -41 c17 -26 45 -50 79 -67 l53 -26 2087 0 2087 0 53 28 c43 22 59 38
81 81 l28 53 0 339 c0 284 -3 346 -15 377 -20 47 -50 79 -97 103 -36 18 -93
19 -2140 19 -1884 0 -2106 -2 -2133 -16z m3233 -481 l-3 -418 -1572 -3 c-1238
-2 -1579 1 -1609 10 -24 8 -47 26 -61 47 -23 34 -23 37 -23 358 0 355 2 371
58 405 25 16 138 17 1620 18 l1592 0 -2 -417z m302 -13 l0 -260 -45 0 -45 0 0
260 0 260 45 0 45 0 0 -260z m465 108 l100 -151 3 151 3 152 44 0 45 0 -2
-257 -3 -258 -42 -3 c-38 -3 -43 -1 -43 17 0 11 -46 90 -102 175 l-103 156 -3
-175 -2 -175 -45 0 -45 0 0 260 0 260 48 0 47 0 100 -152z"/>
<path d="M1890 1225 c-25 -8 -58 -26 -75 -40 l-30 -25 95 -89 95 -89 91 86
c50 48 90 91 90 96 -1 5 -25 22 -54 39 -63 35 -145 44 -212 22z"/>
<path d="M624 1159 c-38 -11 -82 -53 -90 -86 -4 -13 -4 -47 -2 -74 6 -60 38
-98 113 -136 65 -33 85 -51 85 -78 0 -51 -81 -66 -125 -25 l-24 23 -35 -31
c-33 -28 -34 -31 -19 -52 38 -54 156 -76 222 -42 55 27 76 64 76 131 0 76 -29
115 -124 165 -74 39 -96 70 -71 101 16 19 54 19 70 0 16 -20 19 -19 59 15 30
25 32 31 21 45 -32 38 -106 59 -156 44z"/>
<path d="M1087 1164 c-4 -4 -7 -29 -7 -56 l0 -48 70 0 70 0 0 -210 0 -210 45
0 45 0 0 210 0 210 71 0 70 0 -3 53 -3 52 -176 3 c-96 1 -178 -1 -182 -4z"/>
<path d="M2656 1158 c-25 -7 -59 -30 -92 -62 -42 -41 -56 -63 -69 -110 -40
-137 23 -283 142 -333 45 -18 121 -16 168 6 37 16 115 91 115 109 0 4 -17 18
-37 31 l-36 23 -20 -26 c-61 -83 -184 -71 -234 24 -87 163 107 330 226 194
l31 -35 35 28 c19 15 35 31 35 35 0 3 -20 27 -44 51 -31 33 -59 50 -97 61 -59
18 -68 18 -123 4z"/>
<path d="M3172 903 l3 -258 48 -3 c42 -3 47 -1 47 18 0 11 13 43 29 71 l28 50
57 -71 57 -70 60 0 60 0 -19 28 c-11 15 -52 67 -90 117 l-70 89 26 46 c14 25
52 89 84 143 l57 97 -57 0 -57 -1 -80 -138 -80 -139 -3 139 -3 139 -49 0 -50
0 2 -257z"/>
<path d="M1761 1064 c-36 -46 -54 -108 -49 -176 5 -73 28 -128 75 -174 49 -49
90 -67 168 -72 91 -6 158 21 215 85 88 100 91 238 6 348 -15 20 -16 19 -50
-15 l-36 -35 26 -50 c20 -39 24 -59 19 -90 -23 -148 -202 -197 -291 -79 -39
50 -41 136 -5 184 l23 32 -33 34 c-18 19 -36 34 -40 34 -4 0 -17 -12 -28 -26z"/>
</g>
</svg>
